<?xml version="1.0" encoding="utf-8"?>
<!-- Generator: Adobe Illustrator 28.2.0, SVG Export Plug-In . SVG Version: 6.00 Build 0)  -->
<svg version="1.1" id="Layer_1" xmlns="http://www.w3.org/2000/svg" xmlns:xlink="http://www.w3.org/1999/xlink" x="0px" y="0px"
	 viewBox="0 0 1954.8 222.8" style="enable-background:new 0 0 1954.8 222.8;" xml:space="preserve">
<style type="text/css">
	.st0{fill:#C7C9CB;}
</style>
<path class="st0" d="M1954.8,64.2l-19.8-1.1c-9.4-0.5-19.1,3.7-33.2,2.9s-26.3,5.6-36,9.8s-28.4,0.8-35.5,0.4s-45.5,11.6-45.5,11.6
	l-50,6.7l-23.6-1.3l-37.3-9.2c0,0-25.9-1.4-35.5,0.4s-50.1,9-50.1,9l-61.1-5.8c0,0-32.7-6.5-44.5-7.2s-18.3-10.5-18.3-10.5
	l-28.4,0.8l-20.7-10.6l-24.5,15.2l-23.8,3.4l-27.7-11l-28.8,7.9c0,0-23.3-6-30.4-6.4S1260.8,80,1260.8,80s-11.8-0.7-30.4-6.4
	s-19,1.3-26.2,3.3s-16.6,1.4-16.6,1.4s-26.2,3.3-33.6,9.9s-33.2,2.9-33.2,2.9c-12.9-0.4-25.7,1.3-38.1,5c-19.2,6-47.6,6.8-57.3,11
	s-20.8-8.2-20.8-8.2l-28.3-1.6l-20.8-8.2L936,99.8l-28.1-3.9c0,0-52.1,1.8-66.2,1.1s-40.3,2.5-59.1,1.4s-27.7-11-54.3-0.6l-16.5-0.9
	l-28.3-1.6l-18.8-1l-39.8-6.9c0,0-24.3,12.8-31.4,12.4s-33.4,5.2-33.4,5.2l-21.2-1.2c0,0-19.1,3.7-31,5.4c-7.1,1-13.8,3.9-19.4,8.4
	c0,0-55.9-14.9-62.9-15.3s-14.5,6.3-28.8,7.9c-14.3,1.6-39.1-18.7-39.1-18.7l-37.2-11.5l-62.7-20l-27.6-13.3l-25.6-6.2l-32.4-11.3
	c0,0-32.7-6.5-39.8-6.9S104,22.9,104,22.9l-21.3,1.2l-16.5-0.9L29.1,11.7l-18.8-1L0.6,6.7C0.4,7.4,0.1,8-0.1,8.7L0,224.1l1954.8-1.3
	V64.2z"/>
</svg>
