<svg xmlns="http://www.w3.org/2000/svg" xmlns:xlink="http://www.w3.org/1999/xlink" width="2007.218" height="941.756" viewBox="0 0 2007.218 941.756">
  <defs>
    <clipPath id="clip-path">
      <rect id="Rectangle_2" data-name="Rectangle 2" width="2007.218" height="941.756" transform="translate(-12.863 1130.753)" fill="none"/>
    </clipPath>
  </defs>
  <g id="Group_1" data-name="Group 1" transform="translate(12.863 -1130.753)" clip-path="url(#clip-path)">
    <path id="Path_1" data-name="Path 1" d="M1758.249,1944.482c90.451-71.829,98.482-252.806-23.943-327.221-170.207-103.459-150.232-267.894-36.711-273.666,196.906-10.012,86.772,574.032-180.219,420.512-166.957-96-91.79-285.183-269.91-285.183-240.292,0-276.893,471.508-110.554,662.309,113.472,130.158,294.309,18.563,201.005-82.357-163.532-176.882-566.65,85.13-635.818-106.413-58.292-161.425,351.378-14.811,241.244-335.2-81.333-236.6-467.372-122.375-446.089,74.49,18.717,173.136,42.565,207.505-162.28,284.655-209.955,79.074-440.879-51.455-494.821-226.128-57.8-187.164,119.714-409.691,321.9-494.821,187.93-79.129,297.322,80.546,194.2,111.734-139.588,42.218,15.962-311.259,266.033-95.772" fill="none" stroke="#edeeef" stroke-miterlimit="10" stroke-width="20.908"/>
  </g>
</svg>
